<svg width="232" height="62" viewBox="0 0 232 62" fill="none" xmlns="http://www.w3.org/2000/svg">
<path d="M25.44 61.28C20.7467 61.28 16.2133 60.7467 11.84 59.68C7.46667 58.6133 3.86667 57.2267 1.04 55.52L7.12 41.76C9.78667 43.3067 12.7467 44.56 16 45.52C19.3067 46.4267 22.5067 46.88 25.6 46.88C27.4133 46.88 28.8267 46.7733 29.84 46.56C30.9067 46.2933 31.68 45.9467 32.16 45.52C32.64 45.04 32.88 44.48 32.88 43.84C32.88 42.8267 32.32 42.0267 31.2 41.44C30.08 40.8533 28.5867 40.3733 26.72 40C24.9067 39.5733 22.9067 39.1467 20.72 38.72C18.5333 38.24 16.32 37.6267 14.08 36.88C11.8933 36.1333 9.86667 35.1467 8 33.92C6.18667 32.6933 4.72 31.0933 3.6 29.12C2.48 27.0933 1.92 24.5867 1.92 21.6C1.92 18.1333 2.88 14.9867 4.8 12.16C6.77333 9.28 9.68 6.98667 13.52 5.28C17.4133 3.57333 22.24 2.72 28 2.72C31.7867 2.72 35.52 3.12 39.2 3.92C42.88 4.72 46.1867 5.94666 49.12 7.6L43.44 21.28C40.6667 19.8933 37.9733 18.8533 35.36 18.16C32.8 17.4667 30.2933 17.12 27.84 17.12C26.0267 17.12 24.5867 17.28 23.52 17.6C22.4533 17.92 21.68 18.3467 21.2 18.88C20.7733 19.4133 20.56 20 20.56 20.64C20.56 21.6 21.12 22.3733 22.24 22.96C23.36 23.4933 24.8267 23.9467 26.64 24.32C28.5067 24.6933 30.5333 25.0933 32.72 25.52C34.96 25.9467 37.1733 26.5333 39.36 27.28C41.5467 28.0267 43.5467 29.0133 45.36 30.24C47.2267 31.4667 48.72 33.0667 49.84 35.04C50.96 37.0133 51.52 39.4667 51.52 42.4C51.52 45.8133 50.5333 48.96 48.56 51.84C46.64 54.6667 43.76 56.96 39.92 58.72C36.08 60.4267 31.2533 61.28 25.44 61.28Z" fill="white"/>
<path d="M66.104 20.88H81.08V29.04H66.104V20.88ZM66.872 33.456H83.672V42H55.736V8.4H83.048V16.944H66.872V33.456ZM88.0329 42V8.4H97.3449L114.433 28.848H110.113V8.4H121.153V42H111.841L94.7529 21.552H99.0729V42H88.0329ZM133.907 42V17.184H124.067V8.4H155.075V17.184H145.235V42H133.907ZM158.017 42V8.4H174.193C177.329 8.4 180.033 8.912 182.305 9.936C184.609 10.96 186.385 12.432 187.633 14.352C188.881 16.24 189.505 18.48 189.505 21.072C189.505 23.664 188.881 25.904 187.633 27.792C186.385 29.648 184.609 31.072 182.305 32.064C180.033 33.056 177.329 33.552 174.193 33.552H164.305L169.345 28.896V42H158.017ZM178.129 42L169.873 29.76H181.873L190.225 42H178.129ZM169.345 30.144L164.305 25.008H173.473C175.041 25.008 176.193 24.656 176.929 23.952C177.697 23.248 178.081 22.288 178.081 21.072C178.081 19.856 177.697 18.896 176.929 18.192C176.193 17.488 175.041 17.136 173.473 17.136H164.305L169.345 12V30.144ZM211.399 42.768C208.679 42.768 206.151 42.336 203.815 41.472C201.511 40.608 199.511 39.392 197.815 37.824C196.119 36.224 194.791 34.352 193.831 32.208C192.903 30.064 192.439 27.728 192.439 25.2C192.439 22.64 192.903 20.304 193.831 18.192C194.791 16.048 196.119 14.192 197.815 12.624C199.511 11.024 201.511 9.792 203.815 8.928C206.151 8.064 208.679 7.632 211.399 7.632C214.151 7.632 216.679 8.064 218.983 8.928C221.287 9.792 223.287 11.024 224.983 12.624C226.679 14.192 227.991 16.048 228.919 18.192C229.879 20.304 230.359 22.64 230.359 25.2C230.359 27.728 229.879 30.064 228.919 32.208C227.991 34.352 226.679 36.224 224.983 37.824C223.287 39.392 221.287 40.608 218.983 41.472C216.679 42.336 214.151 42.768 211.399 42.768ZM211.399 33.6C212.455 33.6 213.431 33.408 214.327 33.024C215.255 32.64 216.055 32.096 216.727 31.392C217.431 30.656 217.975 29.776 218.359 28.752C218.743 27.696 218.935 26.512 218.935 25.2C218.935 23.888 218.743 22.72 218.359 21.696C217.975 20.64 217.431 19.76 216.727 19.056C216.055 18.32 215.255 17.76 214.327 17.376C213.431 16.992 212.455 16.8 211.399 16.8C210.343 16.8 209.351 16.992 208.423 17.376C207.527 17.76 206.727 18.32 206.023 19.056C205.351 19.76 204.823 20.64 204.439 21.696C204.055 22.72 203.863 23.888 203.863 25.2C203.863 26.512 204.055 27.696 204.439 28.752C204.823 29.776 205.351 30.656 206.023 31.392C206.727 32.096 207.527 32.64 208.423 33.024C209.351 33.408 210.343 33.6 211.399 33.6Z" fill="white"/>
<path d="M52.81 59L55.87 52H58.19L61.25 59H58.81L56.55 53.12H57.47L55.21 59H52.81ZM54.63 57.78L55.23 56.08H58.45L59.05 57.78H54.63ZM64.8302 59.16C63.7568 59.16 62.9202 58.87 62.3202 58.29C61.7202 57.71 61.4202 56.8967 61.4202 55.85V52H63.7802V55.78C63.7802 56.3133 63.8768 56.6933 64.0702 56.92C64.2635 57.14 64.5235 57.25 64.8502 57.25C65.1835 57.25 65.4435 57.14 65.6302 56.92C65.8235 56.6933 65.9202 56.3133 65.9202 55.78V52H68.2402V55.85C68.2402 56.8967 67.9402 57.71 67.3402 58.29C66.7402 58.87 65.9035 59.16 64.8302 59.16ZM70.7443 59V53.83H68.6943V52H75.1543V53.83H73.1043V59H70.7443ZM79.3396 59.16C78.7729 59.16 78.2463 59.07 77.7596 58.89C77.2796 58.71 76.8629 58.4567 76.5096 58.13C76.1563 57.7967 75.8796 57.4067 75.6796 56.96C75.4863 56.5133 75.3896 56.0267 75.3896 55.5C75.3896 54.9667 75.4863 54.48 75.6796 54.04C75.8796 53.5933 76.1563 53.2067 76.5096 52.88C76.8629 52.5467 77.2796 52.29 77.7596 52.11C78.2463 51.93 78.7729 51.84 79.3396 51.84C79.9129 51.84 80.4396 51.93 80.9196 52.11C81.3996 52.29 81.8163 52.5467 82.1696 52.88C82.5229 53.2067 82.7963 53.5933 82.9896 54.04C83.1896 54.48 83.2896 54.9667 83.2896 55.5C83.2896 56.0267 83.1896 56.5133 82.9896 56.96C82.7963 57.4067 82.5229 57.7967 82.1696 58.13C81.8163 58.4567 81.3996 58.71 80.9196 58.89C80.4396 59.07 79.9129 59.16 79.3396 59.16ZM79.3396 57.25C79.5596 57.25 79.7629 57.21 79.9496 57.13C80.1429 57.05 80.3096 56.9367 80.4496 56.79C80.5963 56.6367 80.7096 56.4533 80.7896 56.24C80.8696 56.02 80.9096 55.7733 80.9096 55.5C80.9096 55.2267 80.8696 54.9833 80.7896 54.77C80.7096 54.55 80.5963 54.3667 80.4496 54.22C80.3096 54.0667 80.1429 53.95 79.9496 53.87C79.7629 53.79 79.5596 53.75 79.3396 53.75C79.1196 53.75 78.9129 53.79 78.7196 53.87C78.5329 53.95 78.3663 54.0667 78.2196 54.22C78.0796 54.3667 77.9696 54.55 77.8896 54.77C77.8096 54.9833 77.7696 55.2267 77.7696 55.5C77.7696 55.7733 77.8096 56.02 77.8896 56.24C77.9696 56.4533 78.0796 56.6367 78.2196 56.79C78.3663 56.9367 78.5329 57.05 78.7196 57.13C78.9129 57.21 79.1196 57.25 79.3396 57.25ZM87.1442 59V52H90.5142C91.1676 52 91.7309 52.1067 92.2042 52.32C92.6842 52.5333 93.0542 52.84 93.3142 53.24C93.5742 53.6333 93.7042 54.1 93.7042 54.64C93.7042 55.18 93.5742 55.6467 93.3142 56.04C93.0542 56.4333 92.6842 56.74 92.2042 56.96C91.7309 57.1733 91.1676 57.28 90.5142 57.28H88.4542L89.5042 56.27V59H87.1442ZM89.5042 56.53L88.4542 55.46H90.3642C90.6909 55.46 90.9309 55.3867 91.0842 55.24C91.2442 55.0933 91.3242 54.8933 91.3242 54.64C91.3242 54.3867 91.2442 54.1867 91.0842 54.04C90.9309 53.8933 90.6909 53.82 90.3642 53.82H88.4542L89.5042 52.75V56.53ZM93.3666 59L96.4266 52H98.7466L101.807 59H99.3666L97.1066 53.12H98.0266L95.7666 59H93.3666ZM95.1866 57.78L95.7866 56.08H99.0066L99.6066 57.78H95.1866ZM102.183 59V52H105.553C106.207 52 106.77 52.1067 107.243 52.32C107.723 52.5333 108.093 52.84 108.353 53.24C108.613 53.6333 108.743 54.1 108.743 54.64C108.743 55.18 108.613 55.6467 108.353 56.04C108.093 56.4267 107.723 56.7233 107.243 56.93C106.77 57.1367 106.207 57.24 105.553 57.24H103.493L104.543 56.27V59H102.183ZM106.373 59L104.653 56.45H107.153L108.893 59H106.373ZM104.543 56.53L103.493 55.46H105.403C105.73 55.46 105.97 55.3867 106.123 55.24C106.283 55.0933 106.363 54.8933 106.363 54.64C106.363 54.3867 106.283 54.1867 106.123 54.04C105.97 53.8933 105.73 53.82 105.403 53.82H103.493L104.543 52.75V56.53ZM111.057 59V53.83H109.007V52H115.467V53.83H113.417V59H111.057ZM118.69 59.16C118.103 59.16 117.536 59.0933 116.99 58.96C116.443 58.8267 115.993 58.6533 115.64 58.44L116.4 56.72C116.733 56.9133 117.103 57.07 117.51 57.19C117.923 57.3033 118.323 57.36 118.71 57.36C118.936 57.36 119.113 57.3467 119.24 57.32C119.373 57.2867 119.47 57.2433 119.53 57.19C119.59 57.13 119.62 57.06 119.62 56.98C119.62 56.8533 119.55 56.7533 119.41 56.68C119.27 56.6067 119.083 56.5467 118.85 56.5C118.623 56.4467 118.373 56.3933 118.1 56.34C117.826 56.28 117.55 56.2033 117.27 56.11C116.996 56.0167 116.743 55.8933 116.51 55.74C116.283 55.5867 116.1 55.3867 115.96 55.14C115.82 54.8867 115.75 54.5733 115.75 54.2C115.75 53.7667 115.87 53.3733 116.11 53.02C116.356 52.66 116.72 52.3733 117.2 52.16C117.686 51.9467 118.29 51.84 119.01 51.84C119.483 51.84 119.95 51.89 120.41 51.99C120.87 52.09 121.283 52.2433 121.65 52.45L120.94 54.16C120.593 53.9867 120.256 53.8567 119.93 53.77C119.61 53.6833 119.296 53.64 118.99 53.64C118.763 53.64 118.583 53.66 118.45 53.7C118.316 53.74 118.22 53.7933 118.16 53.86C118.106 53.9267 118.08 54 118.08 54.08C118.08 54.2 118.15 54.2967 118.29 54.37C118.43 54.4367 118.613 54.4933 118.84 54.54C119.073 54.5867 119.326 54.6367 119.6 54.69C119.88 54.7433 120.156 54.8167 120.43 54.91C120.703 55.0033 120.953 55.1267 121.18 55.28C121.413 55.4333 121.6 55.6333 121.74 55.88C121.88 56.1267 121.95 56.4333 121.95 56.8C121.95 57.2267 121.826 57.62 121.58 57.98C121.34 58.3333 120.98 58.62 120.5 58.84C120.02 59.0533 119.416 59.16 118.69 59.16ZM128.26 59.16C127.7 59.16 127.2 59.0733 126.76 58.9C126.32 58.72 125.973 58.4767 125.72 58.17C125.467 57.8633 125.34 57.5167 125.34 57.13C125.34 56.7433 125.423 56.4033 125.59 56.11C125.763 55.81 126.027 55.5433 126.38 55.31C126.74 55.07 127.193 54.8467 127.74 54.64C128.073 54.5133 128.333 54.3967 128.52 54.29C128.713 54.1833 128.85 54.0833 128.93 53.99C129.01 53.89 129.05 53.7933 129.05 53.7C129.05 53.5933 129.013 53.5067 128.94 53.44C128.873 53.3733 128.77 53.34 128.63 53.34C128.477 53.34 128.357 53.38 128.27 53.46C128.19 53.5333 128.15 53.6267 128.15 53.74C128.15 53.8133 128.167 53.8867 128.2 53.96C128.24 54.0333 128.313 54.1233 128.42 54.23C128.527 54.33 128.677 54.4633 128.87 54.63L132.55 57.76L131.34 59.13L127.1 55.49C126.873 55.3033 126.687 55.1167 126.54 54.93C126.393 54.7367 126.283 54.5433 126.21 54.35C126.137 54.1567 126.1 53.9633 126.1 53.77C126.1 53.3967 126.203 53.07 126.41 52.79C126.623 52.5033 126.917 52.28 127.29 52.12C127.67 51.96 128.113 51.88 128.62 51.88C129.087 51.88 129.493 51.9533 129.84 52.1C130.187 52.24 130.457 52.4433 130.65 52.71C130.843 52.9767 130.94 53.29 130.94 53.65C130.94 53.97 130.857 54.26 130.69 54.52C130.53 54.78 130.28 55.0167 129.94 55.23C129.607 55.4433 129.183 55.6467 128.67 55.84C128.403 55.94 128.187 56.0433 128.02 56.15C127.853 56.2567 127.733 56.37 127.66 56.49C127.587 56.6033 127.55 56.7333 127.55 56.88C127.55 56.9867 127.583 57.0867 127.65 57.18C127.723 57.2733 127.823 57.3467 127.95 57.4C128.083 57.4533 128.243 57.48 128.43 57.48C128.79 57.48 129.127 57.3867 129.44 57.2C129.76 57.0067 130.033 56.73 130.26 56.37C130.493 56.01 130.653 55.58 130.74 55.08L132.55 55.62C132.397 56.3067 132.117 56.9167 131.71 57.45C131.31 57.9833 130.813 58.4033 130.22 58.71C129.633 59.01 128.98 59.16 128.26 59.16ZM139.032 59.16C138.445 59.16 137.878 59.0933 137.332 58.96C136.785 58.8267 136.335 58.6533 135.982 58.44L136.742 56.72C137.075 56.9133 137.445 57.07 137.852 57.19C138.265 57.3033 138.665 57.36 139.052 57.36C139.278 57.36 139.455 57.3467 139.582 57.32C139.715 57.2867 139.812 57.2433 139.872 57.19C139.932 57.13 139.962 57.06 139.962 56.98C139.962 56.8533 139.892 56.7533 139.752 56.68C139.612 56.6067 139.425 56.5467 139.192 56.5C138.965 56.4467 138.715 56.3933 138.442 56.34C138.168 56.28 137.892 56.2033 137.612 56.11C137.338 56.0167 137.085 55.8933 136.852 55.74C136.625 55.5867 136.442 55.3867 136.302 55.14C136.162 54.8867 136.092 54.5733 136.092 54.2C136.092 53.7667 136.212 53.3733 136.452 53.02C136.698 52.66 137.062 52.3733 137.542 52.16C138.028 51.9467 138.632 51.84 139.352 51.84C139.825 51.84 140.292 51.89 140.752 51.99C141.212 52.09 141.625 52.2433 141.992 52.45L141.282 54.16C140.935 53.9867 140.598 53.8567 140.272 53.77C139.952 53.6833 139.638 53.64 139.332 53.64C139.105 53.64 138.925 53.66 138.792 53.7C138.658 53.74 138.562 53.7933 138.502 53.86C138.448 53.9267 138.422 54 138.422 54.08C138.422 54.2 138.492 54.2967 138.632 54.37C138.772 54.4367 138.955 54.4933 139.182 54.54C139.415 54.5867 139.668 54.6367 139.942 54.69C140.222 54.7433 140.498 54.8167 140.772 54.91C141.045 55.0033 141.295 55.1267 141.522 55.28C141.755 55.4333 141.942 55.6333 142.082 55.88C142.222 56.1267 142.292 56.4333 142.292 56.8C142.292 57.2267 142.168 57.62 141.922 57.98C141.682 58.3333 141.322 58.62 140.842 58.84C140.362 59.0533 139.758 59.16 139.032 59.16ZM145.154 54.6H148.274V56.3H145.154V54.6ZM145.314 57.22H148.814V59H142.994V52H148.684V53.78H145.314V57.22ZM149.722 59V52H153.092C153.746 52 154.309 52.1067 154.782 52.32C155.262 52.5333 155.632 52.84 155.892 53.24C156.152 53.6333 156.282 54.1 156.282 54.64C156.282 55.18 156.152 55.6467 155.892 56.04C155.632 56.4267 155.262 56.7233 154.782 56.93C154.309 57.1367 153.746 57.24 153.092 57.24H151.032L152.082 56.27V59H149.722ZM153.912 59L152.192 56.45H154.692L156.432 59H153.912ZM152.082 56.53L151.032 55.46H152.942C153.269 55.46 153.509 55.3867 153.662 55.24C153.822 55.0933 153.902 54.8933 153.902 54.64C153.902 54.3867 153.822 54.1867 153.662 54.04C153.509 53.8933 153.269 53.82 152.942 53.82H151.032L152.082 52.75V56.53ZM159.374 59L156.414 52H158.954L161.364 57.91H159.854L162.334 52H164.654L161.694 59H159.374ZM164.888 59V52H167.248V59H164.888ZM172.004 59.16C171.444 59.16 170.924 59.0733 170.444 58.9C169.971 58.72 169.558 58.4667 169.204 58.14C168.858 57.8133 168.588 57.4267 168.394 56.98C168.201 56.5333 168.104 56.04 168.104 55.5C168.104 54.96 168.201 54.4667 168.394 54.02C168.588 53.5733 168.858 53.1867 169.204 52.86C169.558 52.5333 169.971 52.2833 170.444 52.11C170.924 51.93 171.444 51.84 172.004 51.84C172.691 51.84 173.298 51.96 173.824 52.2C174.358 52.44 174.798 52.7867 175.144 53.24L173.654 54.57C173.448 54.31 173.218 54.11 172.964 53.97C172.718 53.8233 172.438 53.75 172.124 53.75C171.878 53.75 171.654 53.79 171.454 53.87C171.254 53.95 171.081 54.0667 170.934 54.22C170.794 54.3733 170.684 54.56 170.604 54.78C170.524 54.9933 170.484 55.2333 170.484 55.5C170.484 55.7667 170.524 56.01 170.604 56.23C170.684 56.4433 170.794 56.6267 170.934 56.78C171.081 56.9333 171.254 57.05 171.454 57.13C171.654 57.21 171.878 57.25 172.124 57.25C172.438 57.25 172.718 57.18 172.964 57.04C173.218 56.8933 173.448 56.69 173.654 56.43L175.144 57.76C174.798 58.2067 174.358 58.5533 173.824 58.8C173.298 59.04 172.691 59.16 172.004 59.16ZM177.986 54.6H181.106V56.3H177.986V54.6ZM178.146 57.22H181.646V59H175.826V52H181.516V53.78H178.146V57.22ZM189.172 59.16C188.612 59.16 188.092 59.0733 187.612 58.9C187.139 58.72 186.726 58.4667 186.372 58.14C186.026 57.8133 185.756 57.4267 185.562 56.98C185.369 56.5333 185.272 56.04 185.272 55.5C185.272 54.96 185.369 54.4667 185.562 54.02C185.756 53.5733 186.026 53.1867 186.372 52.86C186.726 52.5333 187.139 52.2833 187.612 52.11C188.092 51.93 188.612 51.84 189.172 51.84C189.859 51.84 190.466 51.96 190.992 52.2C191.526 52.44 191.966 52.7867 192.312 53.24L190.822 54.57C190.616 54.31 190.386 54.11 190.132 53.97C189.886 53.8233 189.606 53.75 189.292 53.75C189.046 53.75 188.822 53.79 188.622 53.87C188.422 53.95 188.249 54.0667 188.102 54.22C187.962 54.3733 187.852 54.56 187.772 54.78C187.692 54.9933 187.652 55.2333 187.652 55.5C187.652 55.7667 187.692 56.01 187.772 56.23C187.852 56.4433 187.962 56.6267 188.102 56.78C188.249 56.9333 188.422 57.05 188.622 57.13C188.822 57.21 189.046 57.25 189.292 57.25C189.606 57.25 189.886 57.18 190.132 57.04C190.386 56.8933 190.616 56.69 190.822 56.43L192.312 57.76C191.966 58.2067 191.526 58.5533 190.992 58.8C190.466 59.04 189.859 59.16 189.172 59.16ZM195.154 54.6H198.274V56.3H195.154V54.6ZM195.314 57.22H198.814V59H192.994V52H198.684V53.78H195.314V57.22ZM199.722 59V52H201.662L205.222 56.26H204.322V52H206.622V59H204.682L201.122 54.74H202.022V59H199.722ZM209.279 59V53.83H207.229V52H213.689V53.83H211.639V59H209.279ZM216.462 54.6H219.582V56.3H216.462V54.6ZM216.622 57.22H220.122V59H214.302V52H219.992V53.78H216.622V57.22ZM221.031 59V52H224.401C225.054 52 225.618 52.1067 226.091 52.32C226.571 52.5333 226.941 52.84 227.201 53.24C227.461 53.6333 227.591 54.1 227.591 54.64C227.591 55.18 227.461 55.6467 227.201 56.04C226.941 56.4267 226.571 56.7233 226.091 56.93C225.618 57.1367 225.054 57.24 224.401 57.24H222.341L223.391 56.27V59H221.031ZM225.221 59L223.501 56.45H226.001L227.741 59H225.221ZM223.391 56.53L222.341 55.46H224.251C224.578 55.46 224.818 55.3867 224.971 55.24C225.131 55.0933 225.211 54.8933 225.211 54.64C225.211 54.3867 225.131 54.1867 224.971 54.04C224.818 53.8933 224.578 53.82 224.251 53.82H222.341L223.391 52.75V56.53Z" fill="white"/>
</svg>
